
#define logo_width 49
#define logo_height 60
static unsigned char logo_bits[] PROGMEM = {
  0x00, 0x00, 0x00, 0x00, 0x00, 0x00, 0x00, 0x00, 0x00, 0x00, 0x00, 0x00, 
  0x00, 0x00, 0x00, 0x00, 0x00, 0x00, 0x00, 0x00, 0x00, 0x00, 0x00, 0x00, 
  0x00, 0x00, 0x00, 0x00, 0x00, 0x80, 0x56, 0x01, 0x00, 0x02, 0x00, 0x00, 
  0xFE, 0xFF, 0xFF, 0x03, 0x03, 0x00, 0xC0, 0xFF, 0xFF, 0xFF, 0xBF, 0x01, 
  0x00, 0xE0, 0x0F, 0x00, 0xC4, 0xFF, 0x01, 0x00, 0xE0, 0x03, 0x00, 0x00, 
  0xF0, 0x03, 0x00, 0xE0, 0x7F, 0x00, 0x00, 0xE0, 0x03, 0x00, 0xC0, 0xFC, 
  0xFF, 0xFF, 0xFF, 0x03, 0x00, 0xC0, 0x81, 0xFF, 0xFF, 0xBF, 0x01, 0x00, 
  0x80, 0x03, 0x00, 0x00, 0xDF, 0x01, 0x00, 0x00, 0x03, 0x00, 0x80, 0xFB, 
  0x00, 0x00, 0x00, 0x07, 0x00, 0xC0, 0x7F, 0x00, 0x00, 0x00, 0x0E, 0x00, 
  0xC0, 0x3F, 0x00, 0x00, 0x00, 0x0C, 0x00, 0xE0, 0x3F, 0x00, 0x00, 0x00, 
  0x1C, 0x00, 0xF8, 0x0F, 0x00, 0x00, 0x00, 0x38, 0x00, 0xDC, 0x0E, 0x00, 
  0x00, 0x00, 0x70, 0x00, 0xFC, 0x07, 0x00, 0x00, 0x00, 0xE0, 0x00, 0xFE, 
  0x03, 0x00, 0x00, 0x00, 0xC0, 0x80, 0xFF, 0x01, 0x00, 0x00, 0x00, 0xC0, 
  0xC1, 0xFF, 0x00, 0x00, 0x00, 0x00, 0x80, 0xE3, 0x3C, 0x00, 0x00, 0x00, 
  0x00, 0x00, 0xE7, 0x3F, 0x00, 0x00, 0x00, 0x00, 0x00, 0xE6, 0x0F, 0x00, 
  0x00, 0x00, 0x00, 0x00, 0xEE, 0x07, 0x00, 0x00, 0x00, 0x00, 0x00, 0xDC, 
  0x07, 0x00, 0x00, 0x00, 0x00, 0x00, 0xB8, 0x03, 0x00, 0x00, 0x00, 0x00, 
  0x00, 0xF8, 0x01, 0x00, 0x00, 0x00, 0x00, 0x00, 0xF0, 0x01, 0x00, 0x00, 
  0x00, 0x00, 0x00, 0xF0, 0x00, 0x00, 0x00, 0x00, 0x00, 0x00, 0xF0, 0x00, 
  0x00, 0x00, 0x00, 0x00, 0x00, 0xF0, 0x00, 0x00, 0x00, 0x00, 0x00, 0x00, 
  0xF0, 0x00, 0x00, 0x00, 0x00, 0x00, 0x00, 0xF0, 0x00, 0x00, 0x00, 0x00, 
  0x00, 0x00, 0xF0, 0x00, 0x00, 0x00, 0x00, 0x00, 0x00, 0x70, 0x00, 0x00, 
  0x00, 0x00, 0x00, 0x00, 0xE0, 0x00, 0x00, 0x00, 0x00, 0x00, 0x00, 0xF0, 
  0x00, 0x00, 0x00, 0x00, 0x00, 0x00, 0xF0, 0x00, 0x00, 0x00, 0x00, 0x00, 
  0x00, 0x70, 0x00, 0x00, 0x00, 0x00, 0x00, 0x00, 0xE0, 0x00, 0x00, 0x00, 
  0x00, 0x00, 0x00, 0x70, 0x00, 0x00, 0x00, 0x00, 0x00, 0x00, 0x70, 0x00, 
  0x00, 0x00, 0x00, 0x00, 0x00, 0x70, 0x00, 0x00, 0x00, 0x00, 0x00, 0x00, 
  0x60, 0x00, 0x00, 0x00, 0x00, 0x00, 0x00, 0x70, 0x00, 0x00, 0x00, 0x00, 
  0x00, 0x00, 0x70, 0x00, 0x00, 0x00, 0x00, 0x00, 0x00, 0x60, 0x00, 0x00, 
  0x00, 0x00, 0x00, 0x00, 0x70, 0x00, 0x00, 0x00, 0x00, 0x00, 0x80, 0xFF, 
  0x07, 0x00, 0x00, 0x00, 0x00, 0xF0, 0xFF, 0x3F, 0x00, 0x00, 0x00, 0x00, 
  0x70, 0xF8, 0x7C, 0x00, 0x00, 0x00, 0x00, 0x38, 0xFC, 0xE1, 0x00, 0x00, 
  0x00, 0x00, 0xF0, 0x01, 0xF8, 0x00, 0x00, 0x00, 0x00, 0xE0, 0xFF, 0x7F, 
  0x00, 0x00, 0x00, 0x00, 0x00, 0xFF, 0x0F, 0x00, 0x00, 0x00, 0x00, 0x00, 
  0x00, 0x00, 0x00, 0x00, 0x00, 0x00, 0x00, 0x00, 0x00, 0x00, 0x00, 0x00, 
  };
